<svg width="1200" height="400" viewBox="0 0 1200 400" fill="none" xmlns="http://www.w3.org/2000/svg">
<g filter="url(#filter0_i_776_1167)">
<path d="M299.749 262.934L299.749 156.335C239.433 164.077 188.307 223.034 185.722 311.766C226.123 277.485 251.616 268.726 299.749 262.934Z" fill="#F97316"/>
<path d="M182.298 293.068C178.874 257.571 176.964 203.566 165.042 171.521C168.805 166.513 174.632 163.196 181.386 159.845C192.365 153.841 208.679 145.606 236.82 130.069C265.94 113.506 280.485 103.548 304.891 86C290.817 111.905 264.79 138.655 238.729 166.395C200.771 207.735 188.004 243.372 182.298 293.068Z" fill="#F97316"/>
</g>
<ellipse cx="181.96" cy="113.989" rx="22.116" ry="22.9275" fill="#1E3A8A"/>
<g filter="url(#filter1_i_776_1167)">
<path d="M65.9066 263.167V156.569C126.223 164.311 177.348 223.267 179.933 312C139.533 277.719 114.039 268.96 65.9066 263.167Z" fill="#1E3A8A"/>
<path d="M182.296 293.068C181.082 244.798 186.539 203.913 200.326 171.755C196.563 166.747 191.57 162.756 184.816 159.405C173.838 153.401 157.523 145.308 129.382 129.771C100.262 113.209 85.7171 103.548 61.311 86C76.9041 116.367 121.053 155.676 121.053 155.676C121.053 155.676 96.9016 147.398 83.7142 141.383C92.3309 151.805 108.859 165.217 118.755 171.755C128.651 178.293 141.512 187.217 152.62 200.775C163.728 214.333 177.73 252.838 182.296 293.068Z" fill="#1E3A8A"/>
</g>
<mask id="path-4-outside-1_776_1167" maskUnits="userSpaceOnUse" x="349" y="154" width="777" height="64" fill="black">
<rect fill="white" x="349" y="154" width="777" height="64"/>
<path d="M374.499 193.536L362.307 190.656C357.443 189.504 354.115 187.744 352.323 185.376C350.595 183.008 349.731 179.616 349.731 175.2C349.731 168.224 351.555 163.104 355.203 159.84C358.915 156.512 364.643 154.848 372.387 154.848C375.587 154.848 378.435 154.976 380.931 155.232C383.427 155.488 385.731 155.936 387.843 156.576V169.92C382.979 169.088 379.619 168.608 377.763 168.48C375.971 168.352 374.083 168.288 372.099 168.288C369.411 168.288 367.459 168.736 366.243 169.632C365.027 170.528 364.419 172.032 364.419 174.144C364.419 175.168 364.611 175.968 364.995 176.544C365.379 177.056 366.115 177.44 367.203 177.696L378.723 180.384C382.051 181.152 384.451 181.92 385.923 182.688C387.395 183.392 388.579 184.32 389.475 185.472C390.499 186.688 391.235 188.256 391.683 190.176C392.195 192.096 392.451 194.432 392.451 197.184C392.451 204.16 390.595 209.216 386.883 212.352C383.171 215.424 377.411 216.96 369.603 216.96C365.635 216.96 361.859 216.704 358.275 216.192C354.691 215.744 351.907 215.168 349.923 214.464V200.352C352.483 201.184 355.523 201.856 359.043 202.368C362.563 202.816 366.083 203.04 369.603 203.04C372.419 203.04 374.371 202.688 375.459 201.984C376.547 201.28 377.091 199.872 377.091 197.76C377.091 196.416 376.899 195.456 376.515 194.88C376.195 194.24 375.523 193.792 374.499 193.536ZM417.074 216H401.426L423.698 155.808H439.154L460.85 216H445.298L442.13 205.92H420.242L417.074 216ZM431.09 170.592C430.578 172.384 430.002 174.304 429.362 176.352C428.786 178.336 427.794 181.6 426.386 186.144L423.89 194.112H438.386L435.89 186.144C435.058 183.712 434.226 181.152 433.394 178.464C432.562 175.712 431.794 173.088 431.09 170.592ZM525.961 155.808V216H511.753L487.945 181.248V216H474.025V155.808H488.137L512.041 191.904V155.808H525.961ZM575.374 184.992L597.934 216H579.118L562.702 191.424H558.67V216H543.79V155.808H558.67V179.52H562.702L579.31 155.808H597.166L575.374 184.992ZM620.744 216H605.096L627.368 155.808H642.824L664.52 216H648.968L645.8 205.92H623.912L620.744 216ZM634.76 170.592C634.248 172.384 633.672 174.304 633.032 176.352C632.456 178.336 631.464 181.6 630.056 186.144L627.56 194.112H642.056L639.56 186.144C638.728 183.712 637.896 181.152 637.064 178.464C636.232 175.712 635.464 173.088 634.76 170.592ZM716.095 202.08V216H677.695V155.808H692.575V202.08H716.095ZM745.465 199.104V216H730.585V155.808H752.569C761.849 155.808 768.441 157.44 772.345 160.704C776.249 163.904 778.201 169.312 778.201 176.928C778.201 184.48 776.121 190.08 771.961 193.728C767.865 197.312 761.497 199.104 752.857 199.104H745.465ZM763.129 176.928C763.129 174.112 762.361 172.128 760.825 170.976C759.289 169.824 756.537 169.248 752.569 169.248H745.465V186.048H752.569C756.601 186.048 759.353 185.376 760.825 184.032C762.361 182.688 763.129 180.32 763.129 176.928ZM830.272 216L809.44 155.808H826.048L834.976 185.568C835.552 187.552 836.256 190.208 837.088 193.536C837.92 196.8 838.72 200.064 839.488 203.328C840.896 197.504 841.888 193.408 842.464 191.04C843.104 188.672 843.584 186.88 843.904 185.664L852.736 155.808H868.864L848.128 216H830.272ZM896.822 155.808V216H881.942V155.808H896.822ZM937.524 193.536L925.332 190.656C920.468 189.504 917.14 187.744 915.348 185.376C913.62 183.008 912.756 179.616 912.756 175.2C912.756 168.224 914.58 163.104 918.228 159.84C921.94 156.512 927.668 154.848 935.412 154.848C938.612 154.848 941.46 154.976 943.956 155.232C946.452 155.488 948.756 155.936 950.868 156.576V169.92C946.004 169.088 942.644 168.608 940.788 168.48C938.996 168.352 937.108 168.288 935.124 168.288C932.436 168.288 930.484 168.736 929.268 169.632C928.052 170.528 927.444 172.032 927.444 174.144C927.444 175.168 927.636 175.968 928.02 176.544C928.404 177.056 929.14 177.44 930.228 177.696L941.748 180.384C945.076 181.152 947.476 181.92 948.948 182.688C950.42 183.392 951.604 184.32 952.5 185.472C953.524 186.688 954.26 188.256 954.708 190.176C955.22 192.096 955.476 194.432 955.476 197.184C955.476 204.16 953.62 209.216 949.908 212.352C946.196 215.424 940.436 216.96 932.628 216.96C928.66 216.96 924.884 216.704 921.3 216.192C917.716 215.744 914.932 215.168 912.948 214.464V200.352C915.508 201.184 918.548 201.856 922.068 202.368C925.588 202.816 929.108 203.04 932.628 203.04C935.444 203.04 937.396 202.688 938.484 201.984C939.572 201.28 940.116 199.872 940.116 197.76C940.116 196.416 939.924 195.456 939.54 194.88C939.22 194.24 938.548 193.792 937.524 193.536ZM985.165 155.808V216H970.285V155.808H985.165ZM1057.64 185.856C1057.64 196.8 1055.4 204.736 1050.92 209.664C1046.51 214.528 1039.31 216.96 1029.32 216.96C1018.89 216.96 1011.56 214.656 1007.34 210.048C1003.11 205.44 1001 197.376 1001 185.856C1001 174.912 1003.21 167.008 1007.63 162.144C1012.11 157.28 1019.34 154.848 1029.32 154.848C1039.75 154.848 1047.08 157.152 1051.31 161.76C1055.53 166.368 1057.64 174.4 1057.64 185.856ZM1017.9 198.72C1018.73 200.32 1019.95 201.44 1021.55 202.08C1023.21 202.72 1025.8 203.04 1029.32 203.04C1032.84 203.04 1035.4 202.72 1037 202.08C1038.67 201.44 1039.91 200.32 1040.75 198.72C1041.39 197.44 1041.83 195.776 1042.09 193.728C1042.41 191.68 1042.57 189.056 1042.57 185.856C1042.57 182.592 1042.41 179.936 1042.09 177.888C1041.83 175.776 1041.39 174.08 1040.75 172.8C1039.98 171.136 1038.76 169.984 1037.1 169.344C1035.5 168.64 1032.91 168.288 1029.32 168.288C1025.74 168.288 1023.11 168.64 1021.45 169.344C1019.85 169.984 1018.67 171.136 1017.9 172.8C1017.26 174.08 1016.78 175.776 1016.46 177.888C1016.2 179.936 1016.07 182.592 1016.07 185.856C1016.07 189.056 1016.2 191.68 1016.46 193.728C1016.78 195.776 1017.26 197.44 1017.9 198.72ZM1125.38 155.808V216H1111.17L1087.36 181.248V216H1073.44V155.808H1087.55L1111.46 191.904V155.808H1125.38Z"/>
</mask>
<path d="M374.499 193.536L362.307 190.656C357.443 189.504 354.115 187.744 352.323 185.376C350.595 183.008 349.731 179.616 349.731 175.2C349.731 168.224 351.555 163.104 355.203 159.84C358.915 156.512 364.643 154.848 372.387 154.848C375.587 154.848 378.435 154.976 380.931 155.232C383.427 155.488 385.731 155.936 387.843 156.576V169.92C382.979 169.088 379.619 168.608 377.763 168.48C375.971 168.352 374.083 168.288 372.099 168.288C369.411 168.288 367.459 168.736 366.243 169.632C365.027 170.528 364.419 172.032 364.419 174.144C364.419 175.168 364.611 175.968 364.995 176.544C365.379 177.056 366.115 177.44 367.203 177.696L378.723 180.384C382.051 181.152 384.451 181.92 385.923 182.688C387.395 183.392 388.579 184.32 389.475 185.472C390.499 186.688 391.235 188.256 391.683 190.176C392.195 192.096 392.451 194.432 392.451 197.184C392.451 204.16 390.595 209.216 386.883 212.352C383.171 215.424 377.411 216.96 369.603 216.96C365.635 216.96 361.859 216.704 358.275 216.192C354.691 215.744 351.907 215.168 349.923 214.464V200.352C352.483 201.184 355.523 201.856 359.043 202.368C362.563 202.816 366.083 203.04 369.603 203.04C372.419 203.04 374.371 202.688 375.459 201.984C376.547 201.28 377.091 199.872 377.091 197.76C377.091 196.416 376.899 195.456 376.515 194.88C376.195 194.24 375.523 193.792 374.499 193.536ZM417.074 216H401.426L423.698 155.808H439.154L460.85 216H445.298L442.13 205.92H420.242L417.074 216ZM431.09 170.592C430.578 172.384 430.002 174.304 429.362 176.352C428.786 178.336 427.794 181.6 426.386 186.144L423.89 194.112H438.386L435.89 186.144C435.058 183.712 434.226 181.152 433.394 178.464C432.562 175.712 431.794 173.088 431.09 170.592ZM525.961 155.808V216H511.753L487.945 181.248V216H474.025V155.808H488.137L512.041 191.904V155.808H525.961ZM575.374 184.992L597.934 216H579.118L562.702 191.424H558.67V216H543.79V155.808H558.67V179.52H562.702L579.31 155.808H597.166L575.374 184.992ZM620.744 216H605.096L627.368 155.808H642.824L664.52 216H648.968L645.8 205.92H623.912L620.744 216ZM634.76 170.592C634.248 172.384 633.672 174.304 633.032 176.352C632.456 178.336 631.464 181.6 630.056 186.144L627.56 194.112H642.056L639.56 186.144C638.728 183.712 637.896 181.152 637.064 178.464C636.232 175.712 635.464 173.088 634.76 170.592ZM716.095 202.08V216H677.695V155.808H692.575V202.08H716.095ZM745.465 199.104V216H730.585V155.808H752.569C761.849 155.808 768.441 157.44 772.345 160.704C776.249 163.904 778.201 169.312 778.201 176.928C778.201 184.48 776.121 190.08 771.961 193.728C767.865 197.312 761.497 199.104 752.857 199.104H745.465ZM763.129 176.928C763.129 174.112 762.361 172.128 760.825 170.976C759.289 169.824 756.537 169.248 752.569 169.248H745.465V186.048H752.569C756.601 186.048 759.353 185.376 760.825 184.032C762.361 182.688 763.129 180.32 763.129 176.928ZM830.272 216L809.44 155.808H826.048L834.976 185.568C835.552 187.552 836.256 190.208 837.088 193.536C837.92 196.8 838.72 200.064 839.488 203.328C840.896 197.504 841.888 193.408 842.464 191.04C843.104 188.672 843.584 186.88 843.904 185.664L852.736 155.808H868.864L848.128 216H830.272ZM896.822 155.808V216H881.942V155.808H896.822ZM937.524 193.536L925.332 190.656C920.468 189.504 917.14 187.744 915.348 185.376C913.62 183.008 912.756 179.616 912.756 175.2C912.756 168.224 914.58 163.104 918.228 159.84C921.94 156.512 927.668 154.848 935.412 154.848C938.612 154.848 941.46 154.976 943.956 155.232C946.452 155.488 948.756 155.936 950.868 156.576V169.92C946.004 169.088 942.644 168.608 940.788 168.48C938.996 168.352 937.108 168.288 935.124 168.288C932.436 168.288 930.484 168.736 929.268 169.632C928.052 170.528 927.444 172.032 927.444 174.144C927.444 175.168 927.636 175.968 928.02 176.544C928.404 177.056 929.14 177.44 930.228 177.696L941.748 180.384C945.076 181.152 947.476 181.92 948.948 182.688C950.42 183.392 951.604 184.32 952.5 185.472C953.524 186.688 954.26 188.256 954.708 190.176C955.22 192.096 955.476 194.432 955.476 197.184C955.476 204.16 953.62 209.216 949.908 212.352C946.196 215.424 940.436 216.96 932.628 216.96C928.66 216.96 924.884 216.704 921.3 216.192C917.716 215.744 914.932 215.168 912.948 214.464V200.352C915.508 201.184 918.548 201.856 922.068 202.368C925.588 202.816 929.108 203.04 932.628 203.04C935.444 203.04 937.396 202.688 938.484 201.984C939.572 201.28 940.116 199.872 940.116 197.76C940.116 196.416 939.924 195.456 939.54 194.88C939.22 194.24 938.548 193.792 937.524 193.536ZM985.165 155.808V216H970.285V155.808H985.165ZM1057.64 185.856C1057.64 196.8 1055.4 204.736 1050.92 209.664C1046.51 214.528 1039.31 216.96 1029.32 216.96C1018.89 216.96 1011.56 214.656 1007.34 210.048C1003.11 205.44 1001 197.376 1001 185.856C1001 174.912 1003.21 167.008 1007.63 162.144C1012.11 157.28 1019.34 154.848 1029.32 154.848C1039.75 154.848 1047.08 157.152 1051.31 161.76C1055.53 166.368 1057.64 174.4 1057.64 185.856ZM1017.9 198.72C1018.73 200.32 1019.95 201.44 1021.55 202.08C1023.21 202.72 1025.8 203.04 1029.32 203.04C1032.84 203.04 1035.4 202.72 1037 202.08C1038.67 201.44 1039.91 200.32 1040.75 198.72C1041.39 197.44 1041.83 195.776 1042.09 193.728C1042.41 191.68 1042.57 189.056 1042.57 185.856C1042.57 182.592 1042.41 179.936 1042.09 177.888C1041.83 175.776 1041.39 174.08 1040.75 172.8C1039.98 171.136 1038.76 169.984 1037.1 169.344C1035.5 168.64 1032.91 168.288 1029.32 168.288C1025.74 168.288 1023.11 168.64 1021.45 169.344C1019.85 169.984 1018.67 171.136 1017.9 172.8C1017.26 174.08 1016.78 175.776 1016.46 177.888C1016.2 179.936 1016.07 182.592 1016.07 185.856C1016.07 189.056 1016.2 191.68 1016.46 193.728C1016.78 195.776 1017.26 197.44 1017.9 198.72ZM1125.38 155.808V216H1111.17L1087.36 181.248V216H1073.44V155.808H1087.55L1111.46 191.904V155.808H1125.38Z" fill="#1E3A8A"/>
<path d="M374.499 193.536L374.548 193.342L374.545 193.341L374.499 193.536ZM362.307 190.656L362.261 190.851L362.261 190.851L362.307 190.656ZM352.323 185.376L352.162 185.494L352.164 185.497L352.323 185.376ZM355.203 159.84L355.336 159.989L355.337 159.989L355.203 159.84ZM387.843 156.576H388.043V156.428L387.901 156.385L387.843 156.576ZM387.843 169.92L387.809 170.117L388.043 170.157V169.92H387.843ZM377.763 168.48L377.749 168.679L377.749 168.68L377.763 168.48ZM366.243 169.632L366.124 169.471V169.471L366.243 169.632ZM364.995 176.544L364.828 176.655L364.835 176.664L364.995 176.544ZM367.203 177.696L367.157 177.891L367.158 177.891L367.203 177.696ZM378.723 180.384L378.678 180.579L378.678 180.579L378.723 180.384ZM385.923 182.688L385.831 182.865L385.837 182.868L385.923 182.688ZM389.475 185.472L389.317 185.595L389.322 185.601L389.475 185.472ZM391.683 190.176L391.488 190.221L391.49 190.228L391.683 190.176ZM386.883 212.352L387.011 212.506L387.012 212.505L386.883 212.352ZM358.275 216.192L358.303 215.994L358.3 215.994L358.275 216.192ZM349.923 214.464H349.723V214.605L349.856 214.652L349.923 214.464ZM349.923 200.352L349.985 200.162L349.723 200.077V200.352H349.923ZM359.043 202.368L359.014 202.566L359.018 202.566L359.043 202.368ZM375.459 201.984L375.35 201.816V201.816L375.459 201.984ZM376.515 194.88L376.336 194.969L376.342 194.981L376.349 194.991L376.515 194.88ZM374.499 193.536L374.545 193.341L362.353 190.461L362.307 190.656L362.261 190.851L374.453 193.731L374.499 193.536ZM362.307 190.656L362.353 190.461C357.506 189.313 354.233 187.568 352.483 185.255L352.323 185.376L352.164 185.497C353.997 187.92 357.38 189.695 362.261 190.851L362.307 190.656ZM352.323 185.376L352.485 185.258C350.791 182.938 349.931 179.594 349.931 175.2H349.731H349.531C349.531 179.638 350.399 183.078 352.162 185.494L352.323 185.376ZM349.731 175.2H349.931C349.931 168.256 351.746 163.201 355.336 159.989L355.203 159.84L355.07 159.691C351.364 163.007 349.531 168.192 349.531 175.2H349.731ZM355.203 159.84L355.337 159.989C358.996 156.708 364.666 155.048 372.387 155.048V154.848V154.648C364.62 154.648 358.834 156.316 355.07 159.691L355.203 159.84ZM372.387 154.848V155.048C375.582 155.048 378.423 155.176 380.911 155.431L380.931 155.232L380.952 155.033C378.447 154.776 375.592 154.648 372.387 154.648V154.848ZM380.931 155.232L380.911 155.431C383.396 155.686 385.687 156.132 387.785 156.767L387.843 156.576L387.901 156.385C385.775 155.74 383.459 155.29 380.952 155.033L380.931 155.232ZM387.843 156.576H387.643V169.92H387.843H388.043V156.576H387.843ZM387.843 169.92L387.877 169.723C383.014 168.891 379.644 168.409 377.777 168.28L377.763 168.48L377.749 168.68C379.594 168.807 382.945 169.285 387.809 170.117L387.843 169.92ZM377.763 168.48L377.777 168.281C375.98 168.152 374.087 168.088 372.099 168.088V168.288V168.488C374.079 168.488 375.962 168.552 377.749 168.679L377.763 168.48ZM372.099 168.288V168.088C369.398 168.088 367.393 168.537 366.124 169.471L366.243 169.632L366.362 169.793C367.526 168.935 369.424 168.488 372.099 168.488V168.288ZM366.243 169.632L366.124 169.471C364.839 170.418 364.219 171.996 364.219 174.144H364.419H364.619C364.619 172.068 365.215 170.638 366.362 169.793L366.243 169.632ZM364.419 174.144H364.219C364.219 175.19 364.415 176.034 364.829 176.655L364.995 176.544L365.162 176.433C364.808 175.902 364.619 175.146 364.619 174.144H364.419ZM364.995 176.544L364.835 176.664C365.262 177.233 366.054 177.631 367.157 177.891L367.203 177.696L367.249 177.501C366.176 177.249 365.497 176.879 365.155 176.424L364.995 176.544ZM367.203 177.696L367.158 177.891L378.678 180.579L378.723 180.384L378.769 180.189L367.249 177.501L367.203 177.696ZM378.723 180.384L378.678 180.579C382.003 181.346 384.382 182.11 385.831 182.865L385.923 182.688L386.016 182.511C384.52 181.73 382.099 180.958 378.768 180.189L378.723 180.384ZM385.923 182.688L385.837 182.868C387.284 183.561 388.442 184.47 389.317 185.595L389.475 185.472L389.633 185.349C388.716 184.17 387.506 183.223 386.009 182.508L385.923 182.688ZM389.475 185.472L389.322 185.601C390.322 186.788 391.046 188.325 391.488 190.221L391.683 190.176L391.878 190.131C391.424 188.187 390.677 186.588 389.628 185.343L389.475 185.472ZM391.683 190.176L391.49 190.228C391.996 192.126 392.251 194.443 392.251 197.184H392.451H392.651C392.651 194.421 392.394 192.066 391.876 190.124L391.683 190.176ZM392.451 197.184H392.251C392.251 204.128 390.404 209.116 386.754 212.199L386.883 212.352L387.012 212.505C390.786 209.316 392.651 204.192 392.651 197.184H392.451ZM386.883 212.352L386.756 212.198C383.096 215.227 377.391 216.76 369.603 216.76V216.96V217.16C377.431 217.16 383.246 215.621 387.011 212.506L386.883 212.352ZM369.603 216.96V216.76C365.644 216.76 361.877 216.505 358.303 215.994L358.275 216.192L358.247 216.39C361.841 216.903 365.627 217.16 369.603 217.16V216.96ZM358.275 216.192L358.3 215.994C354.722 215.546 351.954 214.972 349.99 214.276L349.923 214.464L349.856 214.652C351.86 215.364 354.661 215.942 358.25 216.39L358.275 216.192ZM349.923 214.464H350.123V200.352H349.923H349.723V214.464H349.923ZM349.923 200.352L349.861 200.542C352.435 201.379 355.486 202.053 359.014 202.566L359.043 202.368L359.072 202.17C355.56 201.659 352.531 200.989 349.985 200.162L349.923 200.352ZM359.043 202.368L359.018 202.566C362.546 203.015 366.075 203.24 369.603 203.24V203.04V202.84C366.092 202.84 362.58 202.617 359.068 202.17L359.043 202.368ZM369.603 203.04V203.24C372.422 203.24 374.427 202.89 375.568 202.152L375.459 201.984L375.35 201.816C374.316 202.486 372.416 202.84 369.603 202.84V203.04ZM375.459 201.984L375.568 202.152C376.742 201.392 377.291 199.896 377.291 197.76H377.091H376.891C376.891 199.848 376.353 201.168 375.35 201.816L375.459 201.984ZM377.091 197.76H377.291C377.291 196.408 377.1 195.397 376.682 194.769L376.515 194.88L376.349 194.991C376.698 195.515 376.891 196.424 376.891 197.76H377.091ZM376.515 194.88L376.694 194.791C376.337 194.077 375.601 193.605 374.548 193.342L374.499 193.536L374.451 193.73C375.445 193.979 376.053 194.403 376.336 194.969L376.515 194.88ZM417.074 216V216.2H417.221L417.265 216.06L417.074 216ZM401.426 216L401.239 215.931L401.139 216.2H401.426V216ZM423.698 155.808V155.608H423.559L423.511 155.739L423.698 155.808ZM439.154 155.808L439.343 155.74L439.295 155.608H439.154V155.808ZM460.85 216V216.2H461.135L461.039 215.932L460.85 216ZM445.298 216L445.108 216.06L445.152 216.2H445.298V216ZM442.13 205.92L442.321 205.86L442.277 205.72H442.13V205.92ZM420.242 205.92V205.72H420.096L420.052 205.86L420.242 205.92ZM431.09 170.592L431.283 170.538L431.092 169.86L430.898 170.537L431.09 170.592ZM429.362 176.352L429.171 176.292L429.17 176.296L429.362 176.352ZM426.386 186.144L426.577 186.204L426.577 186.203L426.386 186.144ZM423.89 194.112L423.7 194.052L423.618 194.312H423.89V194.112ZM438.386 194.112V194.312H438.659L438.577 194.052L438.386 194.112ZM435.89 186.144L436.081 186.084L436.08 186.079L435.89 186.144ZM433.394 178.464L433.203 178.522L433.203 178.523L433.394 178.464ZM417.074 216V215.8H401.426V216V216.2H417.074V216ZM401.426 216L401.614 216.069L423.886 155.877L423.698 155.808L423.511 155.739L401.239 215.931L401.426 216ZM423.698 155.808V156.008H439.154V155.808V155.608H423.698V155.808ZM439.154 155.808L438.966 155.876L460.662 216.068L460.85 216L461.039 215.932L439.343 155.74L439.154 155.808ZM460.85 216V215.8H445.298V216V216.2H460.85V216ZM445.298 216L445.489 215.94L442.321 205.86L442.13 205.92L441.94 205.98L445.108 216.06L445.298 216ZM442.13 205.92V205.72H420.242V205.92V206.12H442.13V205.92ZM420.242 205.92L420.052 205.86L416.884 215.94L417.074 216L417.265 216.06L420.433 205.98L420.242 205.92ZM431.09 170.592L430.898 170.537C430.387 172.327 429.811 174.246 429.171 176.292L429.362 176.352L429.553 176.412C430.194 174.362 430.77 172.441 431.283 170.647L431.09 170.592ZM429.362 176.352L429.17 176.296C428.595 178.278 427.603 181.541 426.195 186.085L426.386 186.144L426.577 186.203C427.985 181.659 428.978 178.394 429.554 176.408L429.362 176.352ZM426.386 186.144L426.196 186.084L423.7 194.052L423.89 194.112L424.081 194.172L426.577 186.204L426.386 186.144ZM423.89 194.112V194.312H438.386V194.112V193.912H423.89V194.112ZM438.386 194.112L438.577 194.052L436.081 186.084L435.89 186.144L435.7 186.204L438.196 194.172L438.386 194.112ZM435.89 186.144L436.08 186.079C435.248 183.649 434.417 181.091 433.585 178.405L433.394 178.464L433.203 178.523C434.036 181.213 434.868 183.775 435.701 186.209L435.89 186.144ZM433.394 178.464L433.586 178.406C432.754 175.655 431.986 173.032 431.283 170.538L431.09 170.592L430.898 170.646C431.602 173.144 432.371 175.769 433.203 178.522L433.394 178.464ZM525.961 155.808H526.161V155.608H525.961V155.808ZM525.961 216V216.2H526.161V216H525.961ZM511.753 216L511.588 216.113L511.647 216.2H511.753V216ZM487.945 181.248L488.11 181.135L487.745 180.602V181.248H487.945ZM487.945 216V216.2H488.145V216H487.945ZM474.025 216H473.825V216.2H474.025V216ZM474.025 155.808V155.608H473.825V155.808H474.025ZM488.137 155.808L488.304 155.698L488.244 155.608H488.137V155.808ZM512.041 191.904L511.874 192.014L512.241 192.568V191.904H512.041ZM512.041 155.808V155.608H511.841V155.808H512.041ZM525.961 155.808H525.761V216H525.961H526.161V155.808H525.961ZM525.961 216V215.8H511.753V216V216.2H525.961V216ZM511.753 216L511.918 215.887L488.11 181.135L487.945 181.248L487.78 181.361L511.588 216.113L511.753 216ZM487.945 181.248H487.745V216H487.945H488.145V181.248H487.945ZM487.945 216V215.8H474.025V216V216.2H487.945V216ZM474.025 216H474.225V155.808H474.025H473.825V216H474.025ZM474.025 155.808V156.008H488.137V155.808V155.608H474.025V155.808ZM488.137 155.808L487.97 155.918L511.874 192.014L512.041 191.904L512.208 191.794L488.304 155.698L488.137 155.808ZM512.041 191.904H512.241V155.808H512.041H511.841V191.904H512.041ZM512.041 155.808V156.008H525.961V155.808V155.608H512.041V155.808ZM575.374 184.992L575.214 184.872L575.125 184.99L575.212 185.11L575.374 184.992ZM597.934 216V216.2H598.327L598.096 215.882L597.934 216ZM579.118 216L578.952 216.111L579.011 216.2H579.118V216ZM562.702 191.424L562.868 191.313L562.809 191.224H562.702V191.424ZM558.67 191.424V191.224H558.47V191.424H558.67ZM558.67 216V216.2H558.87V216H558.67ZM543.79 216H543.59V216.2H543.79V216ZM543.79 155.808V155.608H543.59V155.808H543.79ZM558.67 155.808H558.87V155.608H558.67V155.808ZM558.67 179.52H558.47V179.72H558.67V179.52ZM562.702 179.52V179.72H562.806L562.866 179.635L562.702 179.52ZM579.31 155.808V155.608H579.206L579.146 155.693L579.31 155.808ZM597.166 155.808L597.326 155.928L597.565 155.608H597.166V155.808ZM575.374 184.992L575.212 185.11L597.772 216.118L597.934 216L598.096 215.882L575.536 184.874L575.374 184.992ZM597.934 216V215.8H579.118V216V216.2H597.934V216ZM579.118 216L579.284 215.889L562.868 191.313L562.702 191.424L562.536 191.535L578.952 216.111L579.118 216ZM562.702 191.424V191.224H558.67V191.424V191.624H562.702V191.424ZM558.67 191.424H558.47V216H558.67H558.87V191.424H558.67ZM558.67 216V215.8H543.79V216V216.2H558.67V216ZM543.79 216H543.99V155.808H543.79H543.59V216H543.79ZM543.79 155.808V156.008H558.67V155.808V155.608H543.79V155.808ZM558.67 155.808H558.47V179.52H558.67H558.87V155.808H558.67ZM558.67 179.52V179.72H562.702V179.52V179.32H558.67V179.52ZM562.702 179.52L562.866 179.635L579.474 155.923L579.31 155.808L579.146 155.693L562.538 179.405L562.702 179.52ZM579.31 155.808V156.008H597.166V155.808V155.608H579.31V155.808ZM597.166 155.808L597.006 155.688L575.214 184.872L575.374 184.992L575.534 185.112L597.326 155.928L597.166 155.808ZM620.744 216V216.2H620.891L620.935 216.06L620.744 216ZM605.096 216L604.909 215.931L604.809 216.2H605.096V216ZM627.368 155.808V155.608H627.229L627.181 155.739L627.368 155.808ZM642.824 155.808L643.013 155.74L642.965 155.608H642.824V155.808ZM664.52 216V216.2H664.805L664.709 215.932L664.52 216ZM648.968 216L648.778 216.06L648.822 216.2H648.968V216ZM645.8 205.92L645.991 205.86L645.947 205.72H645.8V205.92ZM623.912 205.92V205.72H623.766L623.722 205.86L623.912 205.92ZM634.76 170.592L634.953 170.538L634.762 169.86L634.568 170.537L634.76 170.592ZM633.032 176.352L632.841 176.292L632.84 176.296L633.032 176.352ZM630.056 186.144L630.247 186.204L630.247 186.203L630.056 186.144ZM627.56 194.112L627.37 194.052L627.288 194.312H627.56V194.112ZM642.056 194.112V194.312H642.329L642.247 194.052L642.056 194.112ZM639.56 186.144L639.751 186.084L639.75 186.079L639.56 186.144ZM637.064 178.464L636.873 178.522L636.873 178.523L637.064 178.464ZM620.744 216V215.8H605.096V216V216.2H620.744V216ZM605.096 216L605.284 216.069L627.556 155.877L627.368 155.808L627.181 155.739L604.909 215.931L605.096 216ZM627.368 155.808V156.008H642.824V155.808V155.608H627.368V155.808ZM642.824 155.808L642.636 155.876L664.332 216.068L664.52 216L664.709 215.932L643.013 155.74L642.824 155.808ZM664.52 216V215.8H648.968V216V216.2H664.52V216ZM648.968 216L649.159 215.94L645.991 205.86L645.8 205.92L645.61 205.98L648.778 216.06L648.968 216ZM645.8 205.92V205.72H623.912V205.92V206.12H645.8V205.92ZM623.912 205.92L623.722 205.86L620.554 215.94L620.744 216L620.935 216.06L624.103 205.98L623.912 205.92ZM634.76 170.592L634.568 170.537C634.057 172.327 633.481 174.246 632.841 176.292L633.032 176.352L633.223 176.412C633.864 174.362 634.44 172.441 634.953 170.647L634.76 170.592ZM633.032 176.352L632.84 176.296C632.265 178.278 631.273 181.541 629.865 186.085L630.056 186.144L630.247 186.203C631.655 181.659 632.648 178.394 633.224 176.408L633.032 176.352ZM630.056 186.144L629.866 186.084L627.37 194.052L627.56 194.112L627.751 194.172L630.247 186.204L630.056 186.144ZM627.56 194.112V194.312H642.056V194.112V193.912H627.56V194.112ZM642.056 194.112L642.247 194.052L639.751 186.084L639.56 186.144L639.37 186.204L641.866 194.172L642.056 194.112ZM639.56 186.144L639.75 186.079C638.918 183.649 638.087 181.091 637.255 178.405L637.064 178.464L636.873 178.523C637.706 181.213 638.538 183.775 639.371 186.209L639.56 186.144ZM637.064 178.464L637.256 178.406C636.424 175.655 635.656 173.032 634.953 170.538L634.76 170.592L634.568 170.646C635.272 173.144 636.041 175.769 636.873 178.522L637.064 178.464ZM716.095 202.08H716.295V201.88H716.095V202.08ZM716.095 216V216.2H716.295V216H716.095ZM677.695 216H677.495V216.2H677.695V216ZM677.695 155.808V155.608H677.495V155.808H677.695ZM692.575 155.808H692.775V155.608H692.575V155.808ZM692.575 202.08H692.375V202.28H692.575V202.08ZM716.095 202.08H715.895V216H716.095H716.295V202.08H716.095ZM716.095 216V215.8H677.695V216V216.2H716.095V216ZM677.695 216H677.895V155.808H677.695H677.495V216H677.695ZM677.695 155.808V156.008H692.575V155.808V155.608H677.695V155.808ZM692.575 155.808H692.375V202.08H692.575H692.775V155.808H692.575ZM692.575 202.08V202.28H716.095V202.08V201.88H692.575V202.08ZM745.465 199.104V198.904H745.265V199.104H745.465ZM745.465 216V216.2H745.665V216H745.465ZM730.585 216H730.385V216.2H730.585V216ZM730.585 155.808V155.608H730.385V155.808H730.585ZM772.345 160.704L772.217 160.857L772.218 160.859L772.345 160.704ZM771.961 193.728L772.093 193.879L772.093 193.878L771.961 193.728ZM760.825 170.976L760.705 171.136V171.136L760.825 170.976ZM745.465 169.248V169.048H745.265V169.248H745.465ZM745.465 186.048H745.265V186.248H745.465V186.048ZM760.825 184.032L760.693 183.881L760.69 183.884L760.825 184.032ZM745.465 199.104H745.265V216H745.465H745.665V199.104H745.465ZM745.465 216V215.8H730.585V216V216.2H745.465V216ZM730.585 216H730.785V155.808H730.585H730.385V216H730.585ZM730.585 155.808V156.008H752.569V155.808V155.608H730.585V155.808ZM752.569 155.808V156.008C761.836 156.008 768.368 157.64 772.217 160.857L772.345 160.704L772.473 160.551C768.514 157.24 761.862 155.608 752.569 155.608V155.808ZM772.345 160.704L772.218 160.859C776.056 164.005 778.001 169.341 778.001 176.928H778.201H778.401C778.401 169.283 776.442 163.803 772.472 160.549L772.345 160.704ZM778.201 176.928H778.001C778.001 184.444 775.932 189.98 771.829 193.578L771.961 193.728L772.093 193.878C776.31 190.18 778.401 184.516 778.401 176.928H778.201ZM771.961 193.728L771.829 193.577C767.786 197.115 761.475 198.904 752.857 198.904V199.104V199.304C761.518 199.304 767.944 197.509 772.093 193.879L771.961 193.728ZM752.857 199.104V198.904H745.465V199.104V199.304H752.857V199.104ZM763.129 176.928H763.329C763.329 174.08 762.552 172.021 760.945 170.816L760.825 170.976L760.705 171.136C762.17 172.235 762.929 174.144 762.929 176.928H763.129ZM760.825 170.976L760.945 170.816C759.353 169.622 756.542 169.048 752.569 169.048V169.248V169.448C756.532 169.448 759.225 170.026 760.705 171.136L760.825 170.976ZM752.569 169.248V169.048H745.465V169.248V169.448H752.569V169.248ZM745.465 169.248H745.265V186.048H745.465H745.665V169.248H745.465ZM745.465 186.048V186.248H752.569V186.048V185.848H745.465V186.048ZM752.569 186.048V186.248C756.607 186.248 759.428 185.578 760.96 184.18L760.825 184.032L760.69 183.884C759.278 185.174 756.594 185.848 752.569 185.848V186.048ZM760.825 184.032L760.957 184.183C762.558 182.782 763.329 180.341 763.329 176.928H763.129H762.929C762.929 180.299 762.164 182.594 760.693 183.881L760.825 184.032ZM830.272 216L830.083 216.065L830.129 216.2H830.272V216ZM809.44 155.808V155.608H809.159L809.251 155.873L809.44 155.808ZM826.048 155.808L826.239 155.751L826.197 155.608H826.048V155.808ZM834.976 185.568L835.168 185.512L835.167 185.511L834.976 185.568ZM837.088 193.536L836.894 193.585L836.894 193.585L837.088 193.536ZM839.488 203.328L839.293 203.374L839.682 203.375L839.488 203.328ZM842.464 191.04L842.271 190.988L842.27 190.993L842.464 191.04ZM843.904 185.664L843.712 185.607L843.71 185.613L843.904 185.664ZM852.736 155.808V155.608H852.586L852.544 155.751L852.736 155.808ZM868.864 155.808L869.053 155.873L869.144 155.608H868.864V155.808ZM848.128 216V216.2H848.271L848.317 216.065L848.128 216ZM830.272 216L830.461 215.935L809.629 155.743L809.44 155.808L809.251 155.873L830.083 216.065L830.272 216ZM809.44 155.808V156.008H826.048V155.808V155.608H809.44V155.808ZM826.048 155.808L825.856 155.865L834.784 185.625L834.976 185.568L835.167 185.511L826.239 155.751L826.048 155.808ZM834.976 185.568L834.784 185.624C835.359 187.604 836.062 190.258 836.894 193.585L837.088 193.536L837.282 193.487C836.45 190.158 835.745 187.5 835.168 185.512L834.976 185.568ZM837.088 193.536L836.894 193.585C837.726 196.848 838.525 200.111 839.293 203.374L839.488 203.328L839.683 203.282C838.914 200.017 838.114 196.752 837.282 193.487L837.088 193.536ZM839.488 203.328L839.682 203.375C841.09 197.551 842.082 193.455 842.658 191.087L842.464 191.04L842.27 190.993C841.693 193.361 840.701 197.457 839.293 203.281L839.488 203.328ZM842.464 191.04L842.657 191.092C843.297 188.724 843.777 186.932 844.097 185.715L843.904 185.664L843.71 185.613C843.391 186.828 842.911 188.62 842.271 190.988L842.464 191.04ZM843.904 185.664L844.096 185.721L852.928 155.865L852.736 155.808L852.544 155.751L843.712 185.607L843.904 185.664ZM852.736 155.808V156.008H868.864V155.808V155.608H852.736V155.808ZM868.864 155.808L868.675 155.743L847.939 215.935L848.128 216L848.317 216.065L869.053 155.873L868.864 155.808ZM848.128 216V215.8H830.272V216V216.2H848.128V216ZM896.822 155.808H897.022V155.608H896.822V155.808ZM896.822 216V216.2H897.022V216H896.822ZM881.942 216H881.742V216.2H881.942V216ZM881.942 155.808V155.608H881.742V155.808H881.942ZM896.822 155.808H896.622V216H896.822H897.022V155.808H896.822ZM896.822 216V215.8H881.942V216V216.2H896.822V216ZM881.942 216H882.142V155.808H881.942H881.742V216H881.942ZM881.942 155.808V156.008H896.822V155.808V155.608H881.942V155.808ZM937.524 193.536L937.573 193.342L937.57 193.341L937.524 193.536ZM925.332 190.656L925.286 190.851L925.286 190.851L925.332 190.656ZM915.348 185.376L915.187 185.494L915.189 185.497L915.348 185.376ZM918.228 159.84L918.361 159.989L918.362 159.989L918.228 159.84ZM950.868 156.576H951.068V156.428L950.926 156.385L950.868 156.576ZM950.868 169.92L950.834 170.117L951.068 170.157V169.92H950.868ZM940.788 168.48L940.774 168.679L940.774 168.68L940.788 168.48ZM929.268 169.632L929.149 169.471V169.471L929.268 169.632ZM928.02 176.544L927.853 176.655L927.86 176.664L928.02 176.544ZM930.228 177.696L930.182 177.891L930.183 177.891L930.228 177.696ZM941.748 180.384L941.703 180.579L941.703 180.579L941.748 180.384ZM948.948 182.688L948.856 182.865L948.862 182.868L948.948 182.688ZM952.5 185.472L952.342 185.595L952.347 185.601L952.5 185.472ZM954.708 190.176L954.513 190.221L954.515 190.228L954.708 190.176ZM949.908 212.352L950.036 212.506L950.037 212.505L949.908 212.352ZM921.3 216.192L921.328 215.994L921.325 215.994L921.3 216.192ZM912.948 214.464H912.748V214.605L912.881 214.652L912.948 214.464ZM912.948 200.352L913.01 200.162L912.748 200.077V200.352H912.948ZM922.068 202.368L922.039 202.566L922.043 202.566L922.068 202.368ZM938.484 201.984L938.375 201.816V201.816L938.484 201.984ZM939.54 194.88L939.361 194.969L939.367 194.981L939.374 194.991L939.54 194.88ZM937.524 193.536L937.57 193.341L925.378 190.461L925.332 190.656L925.286 190.851L937.478 193.731L937.524 193.536ZM925.332 190.656L925.378 190.461C920.531 189.313 917.258 187.568 915.508 185.255L915.348 185.376L915.189 185.497C917.022 187.92 920.405 189.695 925.286 190.851L925.332 190.656ZM915.348 185.376L915.51 185.258C913.816 182.938 912.956 179.594 912.956 175.2H912.756H912.556C912.556 179.638 913.424 183.078 915.187 185.494L915.348 185.376ZM912.756 175.2H912.956C912.956 168.256 914.771 163.201 918.361 159.989L918.228 159.84L918.095 159.691C914.389 163.007 912.556 168.192 912.556 175.2H912.756ZM918.228 159.84L918.362 159.989C922.021 156.708 927.691 155.048 935.412 155.048V154.848V154.648C927.645 154.648 921.859 156.316 918.095 159.691L918.228 159.84ZM935.412 154.848V155.048C938.607 155.048 941.448 155.176 943.936 155.431L943.956 155.232L943.977 155.033C941.472 154.776 938.617 154.648 935.412 154.648V154.848ZM943.956 155.232L943.936 155.431C946.421 155.686 948.712 156.132 950.81 156.767L950.868 156.576L950.926 156.385C948.8 155.74 946.484 155.29 943.977 155.033L943.956 155.232ZM950.868 156.576H950.668V169.92H950.868H951.068V156.576H950.868ZM950.868 169.92L950.902 169.723C946.039 168.891 942.669 168.409 940.802 168.28L940.788 168.48L940.774 168.68C942.619 168.807 945.97 169.285 950.834 170.117L950.868 169.92ZM940.788 168.48L940.802 168.281C939.005 168.152 937.112 168.088 935.124 168.088V168.288V168.488C937.104 168.488 938.987 168.552 940.774 168.679L940.788 168.48ZM935.124 168.288V168.088C932.423 168.088 930.418 168.537 929.149 169.471L929.268 169.632L929.387 169.793C930.551 168.935 932.449 168.488 935.124 168.488V168.288ZM929.268 169.632L929.149 169.471C927.864 170.418 927.244 171.996 927.244 174.144H927.444H927.644C927.644 172.068 928.24 170.638 929.387 169.793L929.268 169.632ZM927.444 174.144H927.244C927.244 175.19 927.44 176.034 927.854 176.655L928.02 176.544L928.187 176.433C927.833 175.902 927.644 175.146 927.644 174.144H927.444ZM928.02 176.544L927.86 176.664C928.287 177.233 929.079 177.631 930.182 177.891L930.228 177.696L930.274 177.501C929.201 177.249 928.522 176.879 928.18 176.424L928.02 176.544ZM930.228 177.696L930.183 177.891L941.703 180.579L941.748 180.384L941.794 180.189L930.274 177.501L930.228 177.696ZM941.748 180.384L941.703 180.579C945.028 181.346 947.407 182.11 948.856 182.865L948.948 182.688L949.041 182.511C947.545 181.73 945.124 180.958 941.793 180.189L941.748 180.384ZM948.948 182.688L948.862 182.868C950.309 183.561 951.467 184.47 952.342 185.595L952.5 185.472L952.658 185.349C951.741 184.17 950.531 183.223 949.034 182.508L948.948 182.688ZM952.5 185.472L952.347 185.601C953.347 186.788 954.071 188.325 954.513 190.221L954.708 190.176L954.903 190.131C954.449 188.187 953.702 186.588 952.653 185.343L952.5 185.472ZM954.708 190.176L954.515 190.228C955.021 192.126 955.276 194.443 955.276 197.184H955.476H955.676C955.676 194.421 955.419 192.066 954.901 190.124L954.708 190.176ZM955.476 197.184H955.276C955.276 204.128 953.429 209.116 949.779 212.199L949.908 212.352L950.037 212.505C953.811 209.316 955.676 204.192 955.676 197.184H955.476ZM949.908 212.352L949.781 212.198C946.121 215.227 940.417 216.76 932.628 216.76V216.96V217.16C940.456 217.16 946.271 215.621 950.036 212.506L949.908 212.352ZM932.628 216.96V216.76C928.669 216.76 924.902 216.505 921.328 215.994L921.3 216.192L921.272 216.39C924.866 216.903 928.652 217.16 932.628 217.16V216.96ZM921.3 216.192L921.325 215.994C917.747 215.546 914.979 214.972 913.015 214.276L912.948 214.464L912.881 214.652C914.885 215.364 917.686 215.942 921.275 216.39L921.3 216.192ZM912.948 214.464H913.148V200.352H912.948H912.748V214.464H912.948ZM912.948 200.352L912.886 200.542C915.46 201.379 918.511 202.053 922.039 202.566L922.068 202.368L922.097 202.17C918.585 201.659 915.556 200.989 913.01 200.162L912.948 200.352ZM922.068 202.368L922.043 202.566C925.571 203.015 929.1 203.24 932.628 203.24V203.04V202.84C929.117 202.84 925.605 202.617 922.093 202.17L922.068 202.368ZM932.628 203.04V203.24C935.447 203.24 937.452 202.89 938.593 202.152L938.484 201.984L938.375 201.816C937.341 202.486 935.441 202.84 932.628 202.84V203.04ZM938.484 201.984L938.593 202.152C939.767 201.392 940.316 199.896 940.316 197.76H940.116H939.916C939.916 199.848 939.378 201.168 938.375 201.816L938.484 201.984ZM940.116 197.76H940.316C940.316 196.408 940.125 195.397 939.707 194.769L939.54 194.88L939.374 194.991C939.723 195.515 939.916 196.424 939.916 197.76H940.116ZM939.54 194.88L939.719 194.791C939.362 194.077 938.626 193.605 937.573 193.342L937.524 193.536L937.476 193.73C938.47 193.979 939.078 194.403 939.361 194.969L939.54 194.88ZM985.165 155.808H985.365V155.608H985.165V155.808ZM985.165 216V216.2H985.365V216H985.165ZM970.285 216H970.085V216.2H970.285V216ZM970.285 155.808V155.608H970.085V155.808H970.285ZM985.165 155.808H984.965V216H985.165H985.365V155.808H985.165ZM985.165 216V215.8H970.285V216V216.2H985.165V216ZM970.285 216H970.485V155.808H970.285H970.085V216H970.285ZM970.285 155.808V156.008H985.165V155.808V155.608H970.285V155.808ZM1050.92 209.664L1050.77 209.529L1050.77 209.53L1050.92 209.664ZM1007.34 210.048L1007.19 210.183V210.183L1007.34 210.048ZM1007.63 162.144L1007.48 162.008L1007.48 162.01L1007.63 162.144ZM1051.31 161.76L1051.16 161.895V161.895L1051.31 161.76ZM1017.9 198.72L1017.72 198.809L1017.72 198.812L1017.9 198.72ZM1021.55 202.08L1021.47 202.266L1021.47 202.267L1021.55 202.08ZM1037 202.08L1036.93 201.893L1036.93 201.894L1037 202.08ZM1040.75 198.72L1040.92 198.812L1040.93 198.809L1040.75 198.72ZM1042.09 193.728L1041.89 193.697L1041.89 193.703L1042.09 193.728ZM1042.09 177.888L1041.89 177.912L1041.89 177.919L1042.09 177.888ZM1040.75 172.8L1040.56 172.884L1040.57 172.889L1040.75 172.8ZM1037.1 169.344L1037.02 169.527L1037.03 169.531L1037.1 169.344ZM1021.45 169.344L1021.52 169.53L1021.53 169.528L1021.45 169.344ZM1017.9 172.8L1018.08 172.889L1018.08 172.884L1017.9 172.8ZM1016.46 177.888L1016.26 177.858L1016.26 177.863L1016.46 177.888ZM1016.46 193.728L1016.26 193.753L1016.26 193.759L1016.46 193.728ZM1057.64 185.856H1057.44C1057.44 196.78 1055.21 204.656 1050.77 209.529L1050.92 209.664L1051.07 209.799C1055.6 204.816 1057.84 196.82 1057.84 185.856H1057.64ZM1050.92 209.664L1050.77 209.53C1046.41 214.334 1039.28 216.76 1029.32 216.76V216.96V217.16C1039.33 217.16 1046.6 214.722 1051.07 209.798L1050.92 209.664ZM1029.32 216.96V216.76C1018.91 216.76 1011.65 214.459 1007.49 209.913L1007.34 210.048L1007.19 210.183C1011.47 214.853 1018.87 217.16 1029.32 217.16V216.96ZM1007.34 210.048L1007.49 209.913C1003.31 205.362 1001.2 197.364 1001.2 185.856H1001H1000.8C1000.8 197.388 1002.91 205.518 1007.19 210.183L1007.34 210.048ZM1001 185.856H1001.2C1001.2 174.931 1003.41 167.088 1007.77 162.278L1007.63 162.144L1007.48 162.01C1003.01 166.928 1000.8 174.893 1000.8 185.856H1001ZM1007.63 162.144L1007.77 162.279C1012.2 157.474 1019.37 155.048 1029.32 155.048V154.848V154.648C1019.31 154.648 1012.01 157.086 1007.48 162.008L1007.63 162.144ZM1029.32 154.848V155.048C1039.73 155.048 1046.99 157.349 1051.16 161.895L1051.31 161.76L1051.45 161.625C1047.17 156.955 1039.77 154.648 1029.32 154.648V154.848ZM1051.31 161.76L1051.16 161.895C1055.33 166.446 1057.44 174.413 1057.44 185.856H1057.64H1057.84C1057.84 174.387 1055.73 166.29 1051.45 161.625L1051.31 161.76ZM1017.9 198.72L1017.72 198.812C1018.57 200.453 1019.83 201.607 1021.47 202.266L1021.55 202.08L1021.62 201.894C1020.07 201.273 1018.89 200.187 1018.08 198.628L1017.9 198.72ZM1021.55 202.08L1021.47 202.267C1023.17 202.92 1025.8 203.24 1029.32 203.24V203.04V202.84C1025.81 202.84 1023.25 202.52 1021.62 201.893L1021.55 202.08ZM1029.32 203.04V203.24C1032.85 203.24 1035.44 202.921 1037.08 202.266L1037 202.08L1036.93 201.894C1035.37 202.519 1032.84 202.84 1029.32 202.84V203.04ZM1037 202.08L1037.07 202.267C1038.78 201.609 1040.07 200.455 1040.92 198.812L1040.75 198.72L1040.57 198.628C1039.76 200.185 1038.55 201.271 1036.93 201.893L1037 202.08ZM1040.75 198.72L1040.93 198.809C1041.58 197.502 1042.03 195.814 1042.29 193.753L1042.09 193.728L1041.89 193.703C1041.64 195.738 1041.19 197.378 1040.57 198.631L1040.75 198.72ZM1042.09 193.728L1042.29 193.759C1042.61 191.697 1042.77 189.061 1042.77 185.856H1042.57H1042.37C1042.37 189.051 1042.21 191.663 1041.89 193.697L1042.09 193.728ZM1042.57 185.856H1042.77C1042.77 182.587 1042.61 179.919 1042.29 177.857L1042.09 177.888L1041.89 177.919C1042.21 179.953 1042.37 182.597 1042.37 185.856H1042.57ZM1042.09 177.888L1042.29 177.864C1042.03 175.739 1041.58 174.018 1040.93 172.711L1040.75 172.8L1040.57 172.889C1041.19 174.142 1041.64 175.813 1041.89 177.912L1042.09 177.888ZM1040.75 172.8L1040.93 172.716C1040.14 171.006 1038.88 169.817 1037.17 169.157L1037.1 169.344L1037.03 169.531C1038.64 170.151 1039.82 171.266 1040.57 172.884L1040.75 172.8ZM1037.1 169.344L1037.18 169.161C1035.54 168.439 1032.91 168.088 1029.32 168.088V168.288V168.488C1032.9 168.488 1035.46 168.841 1037.02 169.527L1037.1 169.344ZM1029.32 168.288V168.088C1025.73 168.088 1023.08 168.439 1021.37 169.16L1021.45 169.344L1021.53 169.528C1023.15 168.841 1025.74 168.488 1029.32 168.488V168.288ZM1021.45 169.344L1021.38 169.158C1019.73 169.819 1018.51 171.009 1017.72 172.716L1017.9 172.8L1018.08 172.884C1018.83 171.263 1019.98 170.149 1021.52 169.53L1021.45 169.344ZM1017.9 172.8L1017.72 172.711C1017.07 174.016 1016.58 175.734 1016.26 177.858L1016.46 177.888L1016.66 177.918C1016.97 175.818 1017.45 174.144 1018.08 172.889L1017.9 172.8ZM1016.46 177.888L1016.26 177.863C1016 179.923 1015.87 182.588 1015.87 185.856H1016.07H1016.27C1016.27 182.596 1016.4 179.949 1016.66 177.913L1016.46 177.888ZM1016.07 185.856H1015.87C1015.87 189.06 1016 191.693 1016.26 193.753L1016.46 193.728L1016.66 193.703C1016.4 191.667 1016.27 189.052 1016.27 185.856H1016.07ZM1016.46 193.728L1016.26 193.759C1016.58 195.819 1017.07 197.505 1017.72 198.809L1017.9 198.72L1018.08 198.631C1017.45 197.375 1016.97 195.733 1016.66 193.697L1016.46 193.728ZM1125.38 155.808H1125.58V155.608H1125.38V155.808ZM1125.38 216V216.2H1125.58V216H1125.38ZM1111.17 216L1111 216.113L1111.06 216.2H1111.17V216ZM1087.36 181.248L1087.52 181.135L1087.16 180.602V181.248H1087.36ZM1087.36 216V216.2H1087.56V216H1087.36ZM1073.44 216H1073.24V216.2H1073.44V216ZM1073.44 155.808V155.608H1073.24V155.808H1073.44ZM1087.55 155.808L1087.72 155.698L1087.66 155.608H1087.55V155.808ZM1111.46 191.904L1111.29 192.014L1111.66 192.568V191.904H1111.46ZM1111.46 155.808V155.608H1111.26V155.808H1111.46ZM1125.38 155.808H1125.18V216H1125.38H1125.58V155.808H1125.38ZM1125.38 216V215.8H1111.17V216V216.2H1125.38V216ZM1111.17 216L1111.33 215.887L1087.52 181.135L1087.36 181.248L1087.19 181.361L1111 216.113L1111.17 216ZM1087.36 181.248H1087.16V216H1087.36H1087.56V181.248H1087.36ZM1087.36 216V215.8H1073.44V216V216.2H1087.36V216ZM1073.44 216H1073.64V155.808H1073.44H1073.24V216H1073.44ZM1073.44 155.808V156.008H1087.55V155.808V155.608H1073.44V155.808ZM1087.55 155.808L1087.39 155.918L1111.29 192.014L1111.46 191.904L1111.62 191.794L1087.72 155.698L1087.55 155.808ZM1111.46 191.904H1111.66V155.808H1111.46H1111.26V191.904H1111.46ZM1111.46 155.808V156.008H1125.38V155.808V155.608H1111.46V155.808Z" fill="black" mask="url(#path-4-outside-1_776_1167)"/>
<path d="M366.355 257.29H361.465V255.04H368.755V264.1C368.195 264.36 367.195 264.62 365.755 264.88C364.315 265.12 363.005 265.24 361.825 265.24C358.725 265.24 356.575 264.51 355.375 263.05C354.195 261.59 353.605 259.1 353.605 255.58C353.605 252.26 354.315 249.82 355.735 248.26C357.155 246.68 359.385 245.89 362.425 245.89C363.465 245.89 364.455 245.92 365.395 245.98C366.355 246.02 367.135 246.09 367.735 246.19V248.44C366.935 248.36 366.065 248.3 365.125 248.26C364.205 248.22 363.305 248.2 362.425 248.2C360.145 248.2 358.535 248.76 357.595 249.88C356.675 251 356.215 252.9 356.215 255.58C356.215 256.9 356.285 258.01 356.425 258.91C356.585 259.79 356.835 260.5 357.175 261.04C357.575 261.72 358.145 262.21 358.885 262.51C359.625 262.79 360.705 262.93 362.125 262.93C362.685 262.93 363.345 262.89 364.105 262.81C364.865 262.71 365.615 262.58 366.355 262.42V257.29ZM402.436 258.25V265H399.886V246.19H406.276C408.936 246.19 410.836 246.65 411.976 247.57C413.136 248.47 413.716 249.97 413.716 252.07C413.716 253.71 413.346 255.02 412.606 256C411.886 256.96 410.786 257.61 409.306 257.95L414.226 265H411.166L406.606 258.25H402.436ZM411.136 252.07C411.136 250.79 410.766 249.88 410.026 249.34C409.286 248.78 408.036 248.5 406.276 248.5H402.436V256H406.276C407.996 256 409.236 255.69 409.996 255.07C410.756 254.45 411.136 253.45 411.136 252.07ZM460.672 255.55C460.672 258.97 460.012 261.44 458.692 262.96C457.392 264.48 455.262 265.24 452.302 265.24C449.122 265.24 446.922 264.54 445.702 263.14C444.502 261.72 443.902 259.19 443.902 255.55C443.902 252.15 444.562 249.69 445.882 248.17C447.202 246.65 449.342 245.89 452.302 245.89C455.482 245.89 457.672 246.6 458.872 248.02C460.072 249.42 460.672 251.93 460.672 255.55ZM447.382 260.98C447.762 261.66 448.322 262.14 449.062 262.42C449.802 262.7 450.882 262.84 452.302 262.84C454.522 262.84 456.042 262.31 456.862 261.25C457.682 260.17 458.092 258.27 458.092 255.55C458.092 254.19 458.022 253.08 457.882 252.22C457.742 251.34 457.522 250.63 457.222 250.09C456.842 249.41 456.282 248.93 455.542 248.65C454.822 248.35 453.742 248.2 452.302 248.2C450.062 248.2 448.532 248.74 447.712 249.82C446.892 250.9 446.482 252.81 446.482 255.55C446.482 256.91 446.552 258.03 446.692 258.91C446.832 259.77 447.062 260.46 447.382 260.98ZM504.095 257.5V246.19H506.645V257.5C506.645 260.14 506.025 262.09 504.785 263.35C503.565 264.61 501.665 265.24 499.085 265.24C496.485 265.24 494.585 264.63 493.385 263.41C492.205 262.17 491.615 260.2 491.615 257.5V246.19H494.165V257.5C494.165 259.48 494.525 260.87 495.245 261.67C495.985 262.45 497.265 262.84 499.085 262.84C500.925 262.84 502.215 262.45 502.955 261.67C503.715 260.87 504.095 259.48 504.095 257.5ZM540.929 258.91V265H538.379V246.19H544.769C547.429 246.19 549.329 246.67 550.469 247.63C551.629 248.59 552.209 250.16 552.209 252.34C552.209 254.56 551.609 256.21 550.409 257.29C549.209 258.37 547.359 258.91 544.859 258.91H540.929ZM549.629 252.34C549.629 250.96 549.249 249.98 548.489 249.4C547.749 248.8 546.509 248.5 544.769 248.5H540.929V256.66H544.769C546.509 256.66 547.749 256.32 548.489 255.64C549.249 254.96 549.629 253.86 549.629 252.34ZM631.014 255.55C631.014 258.97 630.354 261.44 629.034 262.96C627.734 264.48 625.604 265.24 622.644 265.24C619.464 265.24 617.264 264.54 616.044 263.14C614.844 261.72 614.244 259.19 614.244 255.55C614.244 252.15 614.904 249.69 616.224 248.17C617.544 246.65 619.684 245.89 622.644 245.89C625.824 245.89 628.014 246.6 629.214 248.02C630.414 249.42 631.014 251.93 631.014 255.55ZM617.724 260.98C618.104 261.66 618.664 262.14 619.404 262.42C620.144 262.7 621.224 262.84 622.644 262.84C624.864 262.84 626.384 262.31 627.204 261.25C628.024 260.17 628.434 258.27 628.434 255.55C628.434 254.19 628.364 253.08 628.224 252.22C628.084 251.34 627.864 250.63 627.564 250.09C627.184 249.41 626.624 248.93 625.884 248.65C625.164 248.35 624.084 248.2 622.644 248.2C620.404 248.2 618.874 248.74 618.054 249.82C617.234 250.9 616.824 252.81 616.824 255.55C616.824 256.91 616.894 258.03 617.034 258.91C617.174 259.77 617.404 260.46 617.724 260.98ZM664.686 257.26V265H662.136V246.19H674.196V248.5H664.686V255.01H673.086V257.26H664.686ZM739.398 246.19V265H736.848V246.19H739.398ZM786.693 246.19V265H784.113L773.703 250.36V265H771.303V246.19H773.883L784.293 261.04V246.19H786.693ZM825.88 257.11L821.32 256.03C820.06 255.73 819.15 255.22 818.59 254.5C818.03 253.76 817.75 252.74 817.75 251.44C817.75 249.54 818.29 248.14 819.37 247.24C820.47 246.34 822.17 245.89 824.47 245.89C825.43 245.89 826.29 245.94 827.05 246.04C827.83 246.12 828.55 246.25 829.21 246.43V248.74C828.37 248.54 827.57 248.4 826.81 248.32C826.05 248.24 825.26 248.2 824.44 248.2C822.9 248.2 821.82 248.43 821.2 248.89C820.58 249.33 820.27 250.12 820.27 251.26C820.27 251.98 820.41 252.53 820.69 252.91C820.99 253.27 821.47 253.53 822.13 253.69L826.66 254.77C828.26 255.15 829.32 255.69 829.84 256.39C830.38 257.07 830.65 258.13 830.65 259.57C830.65 261.63 830.11 263.09 829.03 263.95C827.97 264.81 826.28 265.24 823.96 265.24C822.74 265.24 821.56 265.16 820.42 265C819.3 264.84 818.41 264.63 817.75 264.37V261.97C818.69 262.25 819.69 262.47 820.75 262.63C821.81 262.77 822.88 262.84 823.96 262.84C825.46 262.84 826.51 262.62 827.11 262.18C827.71 261.74 828.01 260.89 828.01 259.63C828.01 258.85 827.86 258.29 827.56 257.95C827.28 257.59 826.72 257.31 825.88 257.11ZM874.335 246.19V248.5H868.095V265H865.545V248.5H859.305V246.19H874.335ZM907.103 246.19V265H904.553V246.19H907.103ZM952.328 246.19V248.5H946.088V265H943.538V248.5H937.298V246.19H952.328ZM994.845 257.5V246.19H997.395V257.5C997.395 260.14 996.775 262.09 995.535 263.35C994.315 264.61 992.415 265.24 989.835 265.24C987.235 265.24 985.335 264.63 984.135 263.41C982.955 262.17 982.365 260.2 982.365 257.5V246.19H984.915V257.5C984.915 259.48 985.275 260.87 985.995 261.67C986.735 262.45 988.015 262.84 989.835 262.84C991.675 262.84 992.965 262.45 993.705 261.67C994.465 260.87 994.845 259.48 994.845 257.5ZM1042.45 246.19V248.5H1036.21V265H1033.66V248.5H1027.42V246.19H1042.45ZM1085.15 262.6V265H1072.67V246.19H1084.88V248.5H1075.22V254.26H1083.77V256.51H1075.22V262.6H1085.15ZM1123.23 257.11L1118.67 256.03C1117.41 255.73 1116.5 255.22 1115.94 254.5C1115.38 253.76 1115.1 252.74 1115.1 251.44C1115.1 249.54 1115.64 248.14 1116.72 247.24C1117.82 246.34 1119.52 245.89 1121.82 245.89C1122.78 245.89 1123.64 245.94 1124.4 246.04C1125.18 246.12 1125.9 246.25 1126.56 246.43V248.74C1125.72 248.54 1124.92 248.4 1124.16 248.32C1123.4 248.24 1122.61 248.2 1121.79 248.2C1120.25 248.2 1119.17 248.43 1118.55 248.89C1117.93 249.33 1117.62 250.12 1117.62 251.26C1117.62 251.98 1117.76 252.53 1118.04 252.91C1118.34 253.27 1118.82 253.53 1119.48 253.69L1124.01 254.77C1125.61 255.15 1126.67 255.69 1127.19 256.39C1127.73 257.07 1128 258.13 1128 259.57C1128 261.63 1127.46 263.09 1126.38 263.95C1125.32 264.81 1123.63 265.24 1121.31 265.24C1120.09 265.24 1118.91 265.16 1117.77 265C1116.65 264.84 1115.76 264.63 1115.1 264.37V261.97C1116.04 262.25 1117.04 262.47 1118.1 262.63C1119.16 262.77 1120.23 262.84 1121.31 262.84C1122.81 262.84 1123.86 262.62 1124.46 262.18C1125.06 261.74 1125.36 260.89 1125.36 259.63C1125.36 258.85 1125.21 258.29 1124.91 257.95C1124.63 257.59 1124.07 257.31 1123.23 257.11Z" fill="#1E3A8A"/>
<defs>
<filter id="filter0_i_776_1167" x="165.042" y="84" width="139.849" height="227.767" filterUnits="userSpaceOnUse" color-interpolation-filters="sRGB">
<feFlood flood-opacity="0" result="BackgroundImageFix"/>
<feBlend mode="normal" in="SourceGraphic" in2="BackgroundImageFix" result="shape"/>
<feColorMatrix in="SourceAlpha" type="matrix" values="0 0 0 0 0 0 0 0 0 0 0 0 0 0 0 0 0 0 127 0" result="hardAlpha"/>
<feOffset dy="-2"/>
<feGaussianBlur stdDeviation="3"/>
<feComposite in2="hardAlpha" operator="arithmetic" k2="-1" k3="1"/>
<feColorMatrix type="matrix" values="0 0 0 0 1 0 0 0 0 1 0 0 0 0 1 0 0 0 0.2 0"/>
<feBlend mode="normal" in2="shape" result="effect1_innerShadow_776_1167"/>
</filter>
<filter id="filter1_i_776_1167" x="61.311" y="86" width="139.015" height="232" filterUnits="userSpaceOnUse" color-interpolation-filters="sRGB">
<feFlood flood-opacity="0" result="BackgroundImageFix"/>
<feBlend mode="normal" in="SourceGraphic" in2="BackgroundImageFix" result="shape"/>
<feColorMatrix in="SourceAlpha" type="matrix" values="0 0 0 0 0 0 0 0 0 0 0 0 0 0 0 0 0 0 127 0" result="hardAlpha"/>
<feOffset dy="6"/>
<feGaussianBlur stdDeviation="6"/>
<feComposite in2="hardAlpha" operator="arithmetic" k2="-1" k3="1"/>
<feColorMatrix type="matrix" values="0 0 0 0 0 0 0 0 0 0 0 0 0 0 0 0 0 0 0.25 0"/>
<feBlend mode="normal" in2="shape" result="effect1_innerShadow_776_1167"/>
</filter>
</defs>
</svg>
